[img]http://a.imageshack.us/img716/1863/wi2gqf.jpg[/img]

Release Date:6 August 2010 (UK)


Genre:Drama | Music | Romance

A tight-knit group of New York City street dancers, including Luke (Malambri) and Natalie (Vinson), team up with NYU freshman Moose (Sevani), and find themselves pitted against the world's best hip hop dancers in a high-stakes showdown that will change their lives forever.

Cast  (Cast overview, first billed only)

 Rick Malambri ...  Luke 

 Adam G. Sevani ...  Moose 

 Sharni Vinson ...  Natalie 

 Alyson Stoner ...  Camille 

 Keith Stallworth ...  Jacob 

 Kendra Andrews ...  Anala 

 Stephen Boss ...  Jason (as Stephen 'tWitch' Boss) 

 Martín Lombard ...  The Santiago Twins 

 Facundo Lombard ...  The Santiago Twins 

 Oren Michaeli ...  Carlos (as Oren 'Flearock' Michaeli) 

 Joe Slaughter ...  Julien 

 Daniel 'Cloud' Campos ...  Kid Darkness 

 Aja George ...  The Ticks 

 Straphanio 'Shonnie' Solomon ...  The Ticks 

 Terence Dickson ...  The Ticks 

General
Format                           : MPEG-4
Format profile                   : Base Media / Version 2
Codec ID                         : mp42
File size                        : 839 MiB
Duration                         : 1h 38mn
Overall bit rate                 : 1 188 Kbps
Encoded date                     : UTC 2010-08-15 02:16:51
Tagged date                      : UTC 2010-08-15 02:56:48
Writing application              : HandBrake 0.9.4 2009112300

Video
ID                               : 1
Format                           : AVC
Format/Info                      : Advanced Video Codec
Format profile                   : Main@L3.0
Format settings, CABAC           : Yes
Format settings, ReFrames        : 2 frames
Codec ID                         : avc1
Codec ID/Info                    : Advanced Video Coding
Duration                         : 1h 38mn
Bit rate mode                    : Variable
Bit rate                         : 1 024 Kbps
Width                            : 656 pixels
Height                           : 368 pixels
Display aspect ratio             : 16:9
Frame rate mode                  : Variable
Frame rate                       : 24.986 fps
Minimum frame rate               : 8.333 fps
Maximum frame rate               : 25.000 fps
Color space                      : YUV
Chroma subsampling               : 4:2:0
Bit depth                        : 8 bits
Scan type                        : Progressive
Bits/(Pixel*Frame)               : 0.170
Stream size                      : 723 MiB (86%)
Writing library                  : x264 core 79
Encoded date                     : UTC 2010-08-15 02:16:51
Tagged date                      : UTC 2010-08-15 02:56:48
Color primaries                  : BT.601-6 525, BT.1358 525, BT.1700 NTSC, SMPTE 170M
Transfer characteristics         : BT.709-5, BT.1361
Matrix coefficients              : BT.601-6 525, BT.1358 525, BT.1700 NTSC, SMPTE 170M

Audio
ID                               : 2
Format                           : AAC
Format/Info                      : Advanced Audio Codec
Format version                   : Version 4
Format profile                   : LC
Format settings, SBR             : No
Codec ID                         : 40
Duration                         : 1h 38mn
Bit rate mode                    : Variable
Bit rate                         : 160 Kbps
Maximum bit rate                 : 204 Kbps
Channel(s)                       : 2 channels
Channel positions                : Front: L R
Sampling rate                    : 48.0 KHz
Stream size                      : 113 MiB (13%)
Encoded date                     : UTC 2010-08-15 02:16:51
Tagged date                      : UTC 2010-08-15 02:56:48


SCREENS:

[img]http://a.imageshack.us/img823/5658/55mmfb.jpg[/img]

[code]http://www.imdb.com/title/tt1193631/[/code]